<?xml version="1.0" ?>
<!-- Uploaded to: SVG Repo, www.svgrepo.com, Generator: SVG Repo Mixer Tools -->
<svg width="800px" height="800px" viewBox="0 0 32 32" enable-background="new 0 0 32 32" version="1.1" xml:space="preserve" xmlns="http://www.w3.org/2000/svg" xmlns:xlink="http://www.w3.org/1999/xlink">
<g id="ball"/>
<g id="wistle"/>
<g id="pitch"/>
<g id="goal"/>
<g id="socks"/>
<g id="shoe"/>
<g id="jersey"/>
<g id="bottle"/>
<g id="shorts"/>
<g id="corner"/>
<g id="winner"/>
<g id="trophy"/>
<g id="substitution"/>
<g id="medal_award"/>
<g id="strategy"/>
<g id="card"/>
<g id="gloves">
<path d="M20,19h-8c-0.553,0-1-0.448-1-1c0-0.552,0.447-1,1-1h8c0.553,0,1,0.448,1,1C21,18.552,20.553,19,20,19z" fill="#FFCC2F"/>
<path d="M30,31h-8c-0.553,0-1-0.448-1-1s0.447-1,1-1h8c0.553,0,1,0.448,1,1S30.553,31,30,31z M20,30   c0-0.552-0.447-1-1-1h-2c-0.553,0-1,0.448-1,1s0.447,1,1,1h2C19.553,31,20,30.552,20,30z M15,30c0-0.552-0.447-1-1-1H2   c-0.553,0-1,0.448-1,1s0.447,1,1,1h12C14.553,31,15,30.552,15,30z" fill="#FFCC2F"/>
<path d="M28.707,8.293c-1.383-1.382-3.031-1.382-4.414,0c-0.076,0.076-0.14,0.164-0.188,0.26L24,8.764V6   c0-0.155-0.036-0.309-0.106-0.447C23.641,5.045,22.868,3.5,21.5,3.5c-1.368,0-2.141,1.545-2.395,2.053C19.036,5.691,19,5.845,19,6   V5c0-2.763-1.256-4-2.5-4C15.256,1,14,2.237,14,5v1c0-0.155-0.036-0.309-0.106-0.447C13.641,5.045,12.868,3.5,11.5,3.5   c-1.368,0-2.141,1.545-2.395,2.053C9.036,5.691,9,5.845,9,6v4.772L8.848,10.47C8.305,9.603,5.927,8.523,4.452,8.946   C3.543,9.207,3,9.975,3,11c0,2.221,2.666,5.888,3.219,6.625L10,22.351V26c0,0.552,0.447,1,1,1h10c0.553,0,1-0.448,1-1v-3.638   l4.769-5.722c0.089-0.107,0.154-0.231,0.193-0.365l2-7C29.061,8.925,28.964,8.55,28.707,8.293z M20,25h-8v-2h8V25z M25.097,15.522   L20.531,21H11.48L7.8,16.4C6.638,14.85,5,12.149,5,11c0-0.074,0.008-0.12,0.004-0.134c0.39-0.157,1.735,0.317,2.156,0.691   l0.945,1.89C8.275,13.786,8.621,14,9,14h1c0.553,0,1-0.448,1-1V6.245c0.234-0.43,0.408-0.622,0.5-0.703   c0.092,0.081,0.266,0.273,0.5,0.703V11c0,0.552,0.447,1,1,1h2c0.553,0,1-0.448,1-1V5c0-1.447,0.436-1.958,0.456-2.007   C16.563,3.042,17,3.553,17,5v6c0,0.552,0.447,1,1,1h2c0.553,0,1-0.448,1-1V6.245c0.234-0.43,0.408-0.622,0.5-0.703   c0.092,0.081,0.266,0.273,0.5,0.703V11c0,0.552,0.447,1,1,1h1c0.379,0,0.725-0.214,0.894-0.553l0.923-1.846   c0.393-0.361,0.689-0.443,1.041-0.245L25.097,15.522z" fill="#FF911C"/>
</g>
<g id="stadium"/>
<g id="keeper"/>
<g id="time"/>
<g id="horns"/>
<g id="flag"/>
<g id="referee"/>
<g id="player"/>
<g id="injury"/>
<g id="supporter"/>
<g id="coach"/>
<g id="cone"/>
<g id="captain"/>
<g id="match"/>
<g id="score"/>
<g id="celender"/>
<g id="grass"/>
<g id="game"/>
<g id="subsitutions"/>
<g id="bench"/>
</svg>