<?xml version="1.0" ?>
<!-- Uploaded to: SVG Repo, www.svgrepo.com, Generator: SVG Repo Mixer Tools -->
<svg width="800px" height="800px" viewBox="0 0 32 32" enable-background="new 0 0 32 32" version="1.1" xml:space="preserve" xmlns="http://www.w3.org/2000/svg" xmlns:xlink="http://www.w3.org/1999/xlink">
<g id="ball"/>
<g id="wistle"/>
<g id="pitch"/>
<g id="goal"/>
<g id="socks"/>
<g id="shoe"/>
<g id="jersey"/>
<g id="bottle"/>
<g id="shorts"/>
<g id="corner"/>
<g id="winner"/>
<g id="trophy"/>
<g id="substitution"/>
<g id="medal_award"/>
<g id="strategy"/>
<g id="card"/>
<g id="gloves"/>
<g id="stadium"/>
<g id="keeper"/>
<g id="time"/>
<g id="horns"/>
<g id="flag"/>
<g id="referee"/>
<g id="player"/>
<g id="injury"/>
<g id="supporter"/>
<g id="coach"/>
<g id="cone"/>
<g id="captain"/>
<g id="match"/>
<g id="score">
<path d="M6,10V6c0-0.552,0.448-1,1-1s1,0.448,1,1v3h2V6c0-0.552,0.448-1,1-1s1,0.448,1,1v4v4c0,0.552-0.448,1-1,1   s-1-0.448-1-1v-3H7C6.448,11,6,10.552,6,10z M15.29,8.71C15.48,8.89,15.74,9,16,9c0.26,0,0.52-0.11,0.71-0.29   c0.09-0.1,0.16-0.21,0.21-0.33C16.98,8.26,17,8.13,17,8c0-0.07-0.01-0.13-0.02-0.2c-0.01-0.06-0.03-0.12-0.06-0.18   C16.9,7.56,16.87,7.5,16.83,7.44c-0.03-0.05-0.08-0.1-0.12-0.15c-0.37-0.37-1.05-0.37-1.42,0C15.11,7.48,15,7.74,15,8   c0,0.13,0.03,0.26,0.08,0.38C15.13,8.5,15.2,8.61,15.29,8.71z M15.08,12.38c0.02,0.06,0.05,0.12,0.09,0.18   c0.04,0.05,0.08,0.1,0.12,0.15C15.48,12.89,15.74,13,16,13c0.13,0,0.26-0.03,0.38-0.08c0.12-0.05,0.23-0.12,0.33-0.21   c0.04-0.05,0.08-0.1,0.12-0.15c0.04-0.06,0.07-0.12,0.09-0.18c0.03-0.06,0.05-0.12,0.06-0.18C16.99,12.13,17,12.07,17,12   c0-0.26-0.11-0.52-0.29-0.71c-0.1-0.09-0.21-0.16-0.33-0.21c-0.37-0.16-0.81-0.06-1.09,0.21C15.11,11.48,15,11.74,15,12   c0,0.07,0.01,0.13,0.02,0.2C15.03,12.26,15.05,12.32,15.08,12.38z M21,15h4c0.552,0,1-0.448,1-1s-0.448-1-1-1h-3v-2h3   c0.552,0,1-0.448,1-1V6c0-0.552-0.448-1-1-1h-4c-0.552,0-1,0.448-1,1s0.448,1,1,1h3v2h-3c-0.552,0-1,0.448-1,1v4   C20,14.552,20.448,15,21,15z M26,16H6c-0.552,0-1,0.448-1,1s0.448,1,1,1h20c0.552,0,1-0.448,1-1S26.552,16,26,16z" fill="#FFCC2F"/>
<path d="M23,27H9c-0.321,0-0.623-0.154-0.811-0.416c-0.188-0.261-0.239-0.596-0.138-0.901l2-6   C10.188,19.275,10.569,19,11,19h10c0.431,0,0.813,0.275,0.949,0.684l2,6c0.102,0.305,0.05,0.64-0.138,0.901   C23.623,26.846,23.321,27,23,27z M10.387,25h11.226l-1.333-4h-8.559L10.387,25z" fill="#FFCC2F"/>
<path d="M30,31h-8c-0.552,0-1-0.448-1-1s0.448-1,1-1h8c0.552,0,1,0.448,1,1S30.552,31,30,31z M20,30   c0-0.552-0.448-1-1-1h-2c-0.552,0-1,0.448-1,1s0.448,1,1,1h2C19.552,31,20,30.552,20,30z M15,30c0-0.552-0.448-1-1-1H2   c-0.552,0-1,0.448-1,1s0.448,1,1,1h12C14.552,31,15,30.552,15,30z" fill="#FFCC2F"/>
<path d="M30,21H2c-0.285,0-0.556-0.121-0.745-0.333c-0.19-0.212-0.28-0.495-0.249-0.777l2-18   C3.063,1.383,3.49,1,4,1h24c0.51,0,0.938,0.383,0.994,0.89l2,18c0.032,0.283-0.059,0.565-0.249,0.777   C30.556,20.879,30.285,21,30,21z M3.117,19h25.766L27.105,3H4.895L3.117,19z" fill="#FF911C"/>
</g>
<g id="celender"/>
<g id="grass"/>
<g id="game"/>
<g id="subsitutions"/>
<g id="bench"/>
</svg>