<?xml version="1.0" ?>
<!-- Uploaded to: SVG Repo, www.svgrepo.com, Generator: SVG Repo Mixer Tools -->
<svg width="800px" height="800px" viewBox="0 0 32 32" enable-background="new 0 0 32 32" version="1.1" xml:space="preserve" xmlns="http://www.w3.org/2000/svg" xmlns:xlink="http://www.w3.org/1999/xlink">
<g id="ball"/>
<g id="wistle"/>
<g id="pitch"/>
<g id="goal"/>
<g id="socks"/>
<g id="shoe">
<path d="M31,30c0,0.552-0.447,1-1,1h-8c-0.553,0-1-0.448-1-1s0.447-1,1-1h8C30.553,29,31,29.448,31,30z M19,29h-2   c-0.553,0-1,0.448-1,1s0.447,1,1,1h2c0.553,0,1-0.448,1-1S19.553,29,19,29z M14,29H2c-0.553,0-1,0.448-1,1s0.447,1,1,1h12   c0.553,0,1-0.448,1-1S14.553,29,14,29z" fill="#FFCC2F"/>
<path d="M15.342,18.447l2.211-1.105l0.553,1.105C18.281,18.798,18.634,19,19.001,19c0.15,0,0.303-0.034,0.446-0.105   c0.494-0.247,0.694-0.848,0.447-1.342l-0.553-1.105l4.211-2.106l0.553,1.106C24.281,15.798,24.634,16,25.001,16   c0.15,0,0.303-0.034,0.446-0.106c0.494-0.247,0.694-0.848,0.447-1.342l-0.553-1.105l2.211-1.106l0.553,1.106   C28.281,13.798,28.634,14,29.001,14c0.15,0,0.303-0.034,0.446-0.106c0.494-0.247,0.694-0.848,0.447-1.342l-0.553-1.105l1.106-0.553   C30.786,10.725,31,10.379,31,10c0-3.593-0.772-6.186-2.293-7.707C27.45,1.037,26.144,1,26,1c-0.496,0-0.917,0.363-0.989,0.854   c-0.226,1.53-0.78,2.493-1.693,2.944c-1.779,0.879-4.69-0.329-5.662-0.868c-0.47-0.261-1.065-0.104-1.343,0.357l-0.364,0.604   l-0.034-1.886c-0.007-0.35-0.196-0.671-0.499-0.847c-0.305-0.177-0.677-0.181-0.983-0.011c-4.396,2.419-4.679,6.781-4.606,8.489   C2.163,15.123,1,20.907,1,24c0,0.347,0.18,0.669,0.475,0.851C1.635,24.95,1.817,25,2,25c0.153,0,0.306-0.035,0.447-0.105   l3.105-1.553l0.553,1.105C6.281,24.798,6.634,25,7.001,25c0.15,0,0.303-0.034,0.446-0.105c0.494-0.247,0.694-0.848,0.447-1.342   l-0.553-1.105l2.211-1.105l0.553,1.105C10.281,22.798,10.634,23,11.001,23c0.15,0,0.303-0.034,0.446-0.105   c0.494-0.247,0.694-0.848,0.447-1.342l-0.553-1.105l2.211-1.105l0.553,1.105C14.281,20.798,14.634,21,15.001,21   c0.15,0,0.303-0.034,0.446-0.105c0.494-0.247,0.694-0.848,0.447-1.342L15.342,18.447z M13.554,17.105   C13.553,17.105,13.553,17.105,13.554,17.105c-0.001,0-0.001,0.001-0.002,0.001l-3.999,1.999c0,0,0,0-0.001,0c0,0,0,0,0,0l-3.999,2   c0,0,0,0,0,0c0,0,0,0,0,0l-2.418,1.209c0.455-2.864,2.258-6.943,8.225-10.25c0.366-0.203,0.567-0.613,0.504-1.026   c-0.006-0.042-0.518-3.622,2.086-6.089L14.013,8.4c0.009,0.445,0.311,0.832,0.741,0.947c0.431,0.113,0.885-0.068,1.115-0.45   l1.686-2.796c1.437,0.63,4.358,1.616,6.643,0.493c1.251-0.615,2.106-1.73,2.555-3.32c0.856,0.509,2.126,1.963,2.24,6.112   l-1.438,0.719c-0.001,0-0.001,0-0.002,0.001c-0.001,0-0.001,0.001-0.002,0.001l-3.997,1.998c0,0-0.001,0-0.002,0.001   c-0.001,0-0.001,0.001-0.001,0.001l-5.997,2.999c0,0-0.001,0-0.001,0c0,0-0.001,0-0.001,0.001L13.554,17.105z" fill="#FF911C"/>
</g>
<g id="jersey"/>
<g id="bottle"/>
<g id="shorts"/>
<g id="corner"/>
<g id="winner"/>
<g id="trophy"/>
<g id="substitution"/>
<g id="medal_award"/>
<g id="strategy"/>
<g id="card"/>
<g id="gloves"/>
<g id="stadium"/>
<g id="keeper"/>
<g id="time"/>
<g id="horns"/>
<g id="flag"/>
<g id="referee"/>
<g id="player"/>
<g id="injury"/>
<g id="supporter"/>
<g id="coach"/>
<g id="cone"/>
<g id="captain"/>
<g id="match"/>
<g id="score"/>
<g id="celender"/>
<g id="grass"/>
<g id="game"/>
<g id="subsitutions"/>
<g id="bench"/>
</svg>