<?xml version="1.0" ?>
<!-- Uploaded to: SVG Repo, www.svgrepo.com, Generator: SVG Repo Mixer Tools -->
<svg width="800px" height="800px" viewBox="0 0 32 32" enable-background="new 0 0 32 32" version="1.1" xml:space="preserve" xmlns="http://www.w3.org/2000/svg" xmlns:xlink="http://www.w3.org/1999/xlink">
<g id="ball"/>
<g id="wistle"/>
<g id="pitch"/>
<g id="goal"/>
<g id="socks"/>
<g id="shoe"/>
<g id="jersey"/>
<g id="bottle"/>
<g id="shorts">
<path d="M11,16c0-1.654-1.346-3-3-3c-1.654,0-3,1.346-3,3c0,1.654,1.346,3,3,3c0.352,0,0.686-0.072,1-0.184V20   c0,0,0,0,0,0c0,0,0,0,0,0c0,0.551-0.449,1-1,1c-0.551,0-1-0.448-1-1c0-0.552-0.448-1-1-1c-0.552,0-1,0.448-1,1c0,1.654,1.346,3,3,3   c1.654,0,3-1.346,3-3c0,0,0,0,0,0c0,0,0,0,0,0V16z M8,17c-0.551,0-1-0.449-1-1s0.449-1,1-1c0.551,0,1,0.448,1,1S8.551,17,8,17z" fill="#FFCC2F"/>
<path d="M30,31h-8c-0.552,0-1-0.448-1-1s0.448-1,1-1h8c0.552,0,1,0.448,1,1S30.552,31,30,31z M20,30   c0-0.552-0.448-1-1-1h-2c-0.552,0-1,0.448-1,1s0.448,1,1,1h2C19.552,31,20,30.552,20,30z M15,30c0-0.552-0.448-1-1-1H2   c-0.552,0-1,0.448-1,1s0.448,1,1,1h12C14.552,31,15,30.552,15,30z" fill="#FFCC2F"/>
<path d="M30.982,22.736l-2.84-14.923c-0.021-0.108-0.059-0.212-0.114-0.308l-1.01-1.772L27,1.995   C26.997,1.445,26.55,1,26,1H6C5.45,1,5.003,1.445,5,1.995L4.981,5.733l-1.01,1.772c-0.055,0.096-0.093,0.2-0.114,0.308   l-2.84,14.923c-0.032,0.167-0.021,0.338,0.032,0.499l1.01,3.077C2.194,26.722,2.578,27,3.01,27h7.78   c0.352,0,0.678-0.185,0.858-0.487l4.425-7.397l5.323,7.464C21.583,26.844,21.887,27,22.21,27H29c0.433,0,0.817-0.279,0.951-0.691   l1-3.077C31.003,23.072,31.014,22.901,30.982,22.736z M25.005,3l0.01,2H6.985l0.01-2H25.005z M28.273,25h-5.548l-5.911-8.289   c-0.195-0.274-0.513-0.421-0.854-0.418c-0.337,0.013-0.645,0.196-0.818,0.486L10.223,25H3.734l-0.703-2.144l2.76-14.506L6.561,7   h18.878l0.77,1.351l2.761,14.507L28.273,25z" fill="#FF911C"/>
</g>
<g id="corner"/>
<g id="winner"/>
<g id="trophy"/>
<g id="substitution"/>
<g id="medal_award"/>
<g id="strategy"/>
<g id="card"/>
<g id="gloves"/>
<g id="stadium"/>
<g id="keeper"/>
<g id="time"/>
<g id="horns"/>
<g id="flag"/>
<g id="referee"/>
<g id="player"/>
<g id="injury"/>
<g id="supporter"/>
<g id="coach"/>
<g id="cone"/>
<g id="captain"/>
<g id="match"/>
<g id="score"/>
<g id="celender"/>
<g id="grass"/>
<g id="game"/>
<g id="subsitutions"/>
<g id="bench"/>
</svg>